<svg width="135" height="36" viewBox="0 0 135 36" fill="none" xmlns="http://www.w3.org/2000/svg">
<path d="M0.6 1.4H7.8V28.52H24.264V35H0.6V1.4ZM26.5508 24.776C25.8148 22.696 25.4468 20.504 25.4468 18.2C25.4468 15.896 25.8148 13.704 26.5508 11.624C27.3188 9.544 28.4228 7.688 29.8628 6.056C31.3348 4.424 33.2228 3.128 35.5268 2.168C37.8308 1.208 40.4228 0.727998 43.3028 0.727998C46.1828 0.727998 48.7748 1.208 51.0788 2.168C53.3828 3.128 55.2548 4.424 56.6948 6.056C58.1668 7.688 59.2708 9.544 60.0068 11.624C60.7748 13.704 61.1588 15.896 61.1588 18.2C61.1588 20.504 60.7748 22.696 60.0068 24.776C59.2708 26.856 58.1668 28.712 56.6948 30.344C55.2548 31.976 53.3828 33.272 51.0788 34.232C48.7748 35.192 46.1828 35.672 43.3028 35.672C40.4228 35.672 37.8308 35.192 35.5268 34.232C33.2228 33.272 31.3348 31.976 29.8628 30.344C28.4228 28.712 27.3188 26.856 26.5508 24.776ZM51.0308 25.928C52.8548 23.88 53.7668 21.304 53.7668 18.2C53.7668 15.096 52.8548 12.52 51.0308 10.472C49.2068 8.424 46.6308 7.4 43.3028 7.4C39.9428 7.4 37.3508 8.424 35.5268 10.472C33.7028 12.52 32.7908 15.096 32.7908 18.2C32.7908 21.304 33.7028 23.88 35.5268 25.928C37.3508 27.976 39.9428 29 43.3028 29C46.6308 29 49.2068 27.976 51.0308 25.928ZM64.6823 18.2C64.6823 15.256 65.1943 12.648 66.2183 10.376C67.2423 8.072 68.6183 6.232 70.3463 4.856C72.1063 3.48 74.0583 2.456 76.2023 1.784C78.3463 1.08 80.6023 0.727998 82.9703 0.727998C86.6183 0.727998 90.0583 1.448 93.2903 2.888V9.752C90.6663 8.024 87.5463 7.16 83.9303 7.16C80.6023 7.16 77.7863 8.088 75.4823 9.944C73.1783 11.768 72.0263 14.52 72.0263 18.2C72.0263 20.312 72.3783 22.136 73.0823 23.672C73.8183 25.208 74.7783 26.376 75.9623 27.176C77.1463 27.944 78.3623 28.504 79.6103 28.856C80.8583 29.208 82.1703 29.384 83.5463 29.384C84.9223 29.384 86.1543 29.176 87.2423 28.76V16.76H94.1063V33.416C90.5863 34.92 86.9383 35.672 83.1623 35.672C81.2423 35.672 79.3863 35.464 77.5943 35.048C75.8343 34.632 74.1543 33.976 72.5543 33.08C70.9863 32.152 69.6263 31.032 68.4743 29.72C67.3223 28.376 66.3943 26.728 65.6903 24.776C65.0183 22.792 64.6823 20.6 64.6823 18.2ZM99.4414 24.776C98.7054 22.696 98.3374 20.504 98.3374 18.2C98.3374 15.896 98.7054 13.704 99.4414 11.624C100.209 9.544 101.313 7.688 102.753 6.056C104.225 4.424 106.113 3.128 108.417 2.168C110.721 1.208 113.313 0.727998 116.193 0.727998C119.073 0.727998 121.665 1.208 123.969 2.168C126.273 3.128 128.145 4.424 129.585 6.056C131.057 7.688 132.161 9.544 132.897 11.624C133.665 13.704 134.049 15.896 134.049 18.2C134.049 20.504 133.665 22.696 132.897 24.776C132.161 26.856 131.057 28.712 129.585 30.344C128.145 31.976 126.273 33.272 123.969 34.232C121.665 35.192 119.073 35.672 116.193 35.672C113.313 35.672 110.721 35.192 108.417 34.232C106.113 33.272 104.225 31.976 102.753 30.344C101.313 28.712 100.209 26.856 99.4414 24.776ZM123.921 25.928C125.745 23.88 126.657 21.304 126.657 18.2C126.657 15.096 125.745 12.52 123.921 10.472C122.097 8.424 119.521 7.4 116.193 7.4C112.833 7.4 110.241 8.424 108.417 10.472C106.593 12.52 105.681 15.096 105.681 18.2C105.681 21.304 106.593 23.88 108.417 25.928C110.241 27.976 112.833 29 116.193 29C119.521 29 122.097 27.976 123.921 25.928Z" fill="white"/>
</svg>
